# Blender3D v249 OBJ File: 
# www.blender3d.org
v -1.733976 0.000000 0.100000
v 1.766024 0.000000 0.100000
v -1.733976 -0.000000 -0.100000
v 1.766024 -0.000000 -0.100000
v -1.733976 5.000000 0.100000
v 1.766024 5.000000 0.100000
v -1.733976 5.000000 -0.100000
v 1.766024 5.000000 -0.100000
v -1.733976 0.000000 0.100000
v 1.766024 0.000000 0.100000
v 1.766024 5.000000 0.100000
v 1.766024 5.000000 0.100000
v -1.733976 5.000000 0.100000
v -1.733976 0.000000 0.100000
v 1.766024 0.000000 0.100000
v 1.766024 -0.000000 -0.100000
v 1.766024 5.000000 -0.100000
v 1.766024 5.000000 -0.100000
v 1.766024 5.000000 0.100000
v 1.766024 0.000000 0.100000
v 1.766024 -0.000000 -0.100000
v -1.733976 -0.000000 -0.100000
v -1.733976 5.000000 -0.100000
v -1.733976 5.000000 -0.100000
v 1.766024 5.000000 -0.100000
v 1.766024 -0.000000 -0.100000
v -1.733976 -0.000000 -0.100000
v -1.733976 0.000000 0.100000
v -1.733976 5.000000 0.100000
v -1.733976 5.000000 0.100000
v -1.733976 5.000000 -0.100000
v -1.733976 -0.000000 -0.100000
vt 0.846384 0.045088
vt 0.953920 0.045088
vt 0.953920 0.671868
vt 0.846384 0.671868
vt 0.799409 0.809841
vt 0.031296 0.809841
vt 0.031296 0.041728
vt 0.799409 0.041728
vt 0.056375 0.858227
vt 0.801848 0.858227
vt 0.801848 0.972068
vt 0.056375 0.972068
vn 0.000000 -1.000000 0.000000
vn 0.000000 1.000000 -0.000000
vn 0.000000 0.000000 1.000000
vn 1.000000 0.000000 -0.000000
vn 0.000000 -0.000000 -1.000000
vn -1.000000 -0.000000 0.000000
usemtl (null)
s off
f 1/1/1 3/2/1 4/3/1
f 2/4/1 1/1/1 4/3/1
f 5/4/2 6/1/2 8/2/2
f 8/2/2 7/3/2 5/4/2
f 9/5/3 10/6/3 11/7/3
f 12/7/3 13/8/3 14/5/3
f 15/9/4 16/10/4 17/11/4
f 18/11/4 19/12/4 20/9/4
f 21/5/5 22/6/5 23/7/5
f 24/7/5 25/8/5 26/5/5
f 27/9/6 28/10/6 29/11/6
f 30/11/6 31/12/6 32/9/6
