# Blender v2.58 (sub 0) OBJ File: ''
# www.blender.org
o Plane001
v -138.792084 0.000001 137.901566
v -108.669312 0.000001 137.901566
v 0.317428 0.000001 137.901566
v 31.246889 0.000001 137.901566
v 132.388763 0.000001 137.901566
v 165.120758 0.000001 137.901566
v 259.613464 0.000001 137.901566
v 293.773926 0.000001 137.901566
v -108.669289 0.404635 -1003.560608
v 0.317428 0.404635 -1003.560608
v 31.246883 0.404635 -1111.447876
v 132.388779 0.404635 -1111.447876
v 165.120758 0.404635 -1003.560608
v 259.613464 0.404635 -1003.560608
v 293.773926 -0.333905 -1003.562927
v -138.792084 0.000001 -334.635834
v -108.669312 0.000001 -334.635834
v 0.317428 0.000001 -334.635834
v 31.246889 0.000001 -334.635834
v 132.388763 0.000001 -334.635834
v 165.120758 0.000001 -334.635834
v 259.613464 0.000001 -334.635834
v 293.773926 0.000001 -334.635834
v -139.693207 0.460030 -1003.562927
v -108.669312 0.515460 -393.843018
v 0.317428 0.515460 -393.843018
v 31.246889 0.515460 -393.843018
v 132.388763 0.515460 -393.843018
v 165.120758 0.515460 -393.843018
v 259.613464 0.515460 -393.843018
v -138.792084 0.515460 -393.843018
v 293.773926 0.515460 -393.843018
v -108.669312 -62.887466 -393.838562
v 0.317428 -62.887466 -393.838562
v 31.246889 -62.887466 -393.838562
v 132.388763 -62.887466 -393.838562
v 165.120758 -62.887466 -393.838562
v 259.613464 -62.887466 -393.838562
v -138.792084 0.515460 -393.843018
v 293.773926 0.515460 -393.843018
v -138.792084 -62.887466 -393.838562
v 293.773926 -62.887466 -393.838562
v -138.792084 -62.887505 -907.874451
v 293.773926 -62.887505 -907.874451
v -108.669289 -62.887505 -907.874451
v 0.317428 -62.887505 -907.874451
v 31.246893 -62.887505 -907.874451
v 132.388763 -62.887505 -907.874451
v 165.120758 -62.887505 -907.874451
v 259.613464 -62.887505 -907.874451
v -138.792084 -62.887505 -907.874451
v 293.773926 -62.887505 -907.874451
v -139.693207 0.460030 -907.876648
v -139.693207 0.460030 -907.876648
v 293.773926 -0.333905 -907.876648
v -139.693207 0.460030 -907.876648
v 293.773926 -0.333905 -907.876648
v 293.773926 -0.333905 -907.876648
v -108.669289 0.404635 -907.874451
v 0.317428 0.404635 -907.874451
v 31.246893 0.404635 -907.874451
v 132.388763 0.404635 -907.874451
v 165.120758 0.404635 -907.874451
v 259.613464 0.404635 -907.874451
v -139.693207 0.460030 -907.876648
v 293.773926 -0.333905 -907.876648
v 165.120758 -62.887474 -495.617676
v 165.120758 -62.887482 -598.424866
v 165.120758 -62.887486 -701.231995
v 165.120758 -62.887493 -828.758301
v 259.613464 -62.887474 -495.617676
v 259.613464 -62.887482 -598.424866
v 259.613464 -62.887486 -701.231995
v 259.613464 -62.887493 -828.758301
v 31.246889 -62.887478 -565.183899
v 31.246893 -62.887489 -736.529175
v 132.388763 -62.887478 -565.183899
v 132.388763 -62.887489 -736.529175
v -108.669312 -62.887474 -496.645752
v -108.669312 -62.887482 -599.452942
v -108.669289 -62.887486 -702.260010
v -108.669289 -62.887493 -829.786316
v 0.317428 -62.887474 -496.645752
v 0.317428 -62.887482 -599.452942
v 0.317428 -62.887486 -702.260010
v 0.317428 -62.887493 -829.786316
v 31.246893 1.053277 -736.529175
v 31.246889 1.053290 -565.183899
v 132.388763 1.053290 -565.183899
v 132.388763 1.053277 -736.529175
v 165.120758 1.053273 -828.758301
v 165.120758 1.053281 -701.231995
v 259.613464 1.053281 -701.231995
v 259.613464 1.053273 -828.758301
v 165.120758 1.053286 -598.424866
v 165.120758 1.053294 -495.617676
v 259.613464 1.053294 -495.617676
v 259.613464 1.053286 -598.424866
v -108.669289 1.053273 -829.786316
v -108.669289 1.053281 -702.260010
v 0.317428 1.053281 -702.260010
v 0.317428 1.053273 -829.786316
v -108.669312 1.053286 -599.452942
v -108.669312 1.053294 -496.645752
v 0.317428 1.053294 -496.645752
v 0.317428 1.053286 -599.452942
v 31.246893 0.404635 -1003.560608
v 132.388763 0.404635 -1003.560608
v 31.246893 0.404635 -1003.560608
v 132.388763 0.404635 -1003.560608
vt 0.000000 0.000000
vt 0.142857 0.000000
vt 0.142857 0.974044
vt 0.000000 0.974044
vt 0.285714 0.000000
vt 0.285714 0.974044
vt 0.428571 0.000000
vt 0.428571 0.974044
vt 0.571429 0.000000
vt 0.571429 0.974044
vt 0.714286 0.000000
vt 0.714286 0.974044
vt 0.857143 0.000000
vt 0.857143 0.974044
vt 1.000000 0.000000
vt 1.000000 0.974044
vt 0.142857 1.000000
vt 0.000000 1.000000
vt 0.285714 1.000000
vt 0.428571 1.000000
vt 0.571429 1.000000
vt 0.714286 1.000000
vt 0.857143 1.000000
vt 1.000000 1.000000
vn 0.000000 1.000000 -0.000000
vn 0.000000 0.000000 0.000000
vn -0.000000 0.999962 0.008706
vn -0.000000 -0.000070 -1.000000
vn -0.000001 1.000000 -0.000000
vn 0.999899 0.014224 -0.000000
vn 0.999998 -0.000000 -0.001753
vn -1.000000 0.000000 0.000000
vn -0.000071 0.000034 1.000000
vn 0.000000 0.000000 1.000000
vn 0.000064 -0.000000 1.000000
vn 0.000000 0.000035 1.000000
vn 0.001786 0.999998 0.000000
vn 0.021615 0.999766 0.000000
vn 1.000000 0.000000 -0.000000
vn 0.000000 0.000000 -1.000000
usemtl (null)
s off
f 1/1/1 2/2/1 17/3/1
f 1/1/1 17/3/1 16/4/1
f 2/2/1 3/5/1 18/6/1
f 18/6/1 17/3/1 2/2/1
f 3/5/1 4/7/1 19/8/1
f 19/8/1 18/6/1 3/5/1
f 4/7/1 5/9/1 20/10/1
f 20/10/1 19/8/1 4/7/1
f 5/9/1 6/11/1 21/12/1
f 21/12/1 20/10/1 5/9/1
f 6/11/1 7/13/1 22/14/1
f 22/14/1 21/12/1 6/11/1
f 7/13/1 8/15/1 23/16/1
f 23/16/1 22/14/1 7/13/1
f 25/17/2 39/18/2 31/18/2
f 25/17/3 31/18/3 16/4/3
f 17/3/3 25/17/3 16/4/3
f 26/19/3 25/17/3 17/3/3
f 17/3/3 18/6/3 26/19/3
f 27/20/3 26/19/3 18/6/3
f 18/6/3 19/8/3 27/20/3
f 28/21/3 27/20/3 19/8/3
f 19/8/3 20/10/3 28/21/3
f 29/22/3 28/21/3 20/10/3
f 20/10/3 21/12/3 29/22/3
f 30/23/3 29/22/3 21/12/3
f 21/12/3 22/14/3 30/23/3
f 23/16/2 32/24/2 40/24/2
f 23/16/3 40/24/3 30/23/3
f 23/16/3 30/23/3 22/14/3
f 41/18/4 39/18/4 25/17/4
f 25/17/4 33/17/4 41/18/4
f 34/19/4 33/17/4 25/17/4
f 25/17/4 26/19/4 34/19/4
f 35/20/4 34/19/4 26/19/4
f 26/19/4 27/20/4 35/20/4
f 36/21/4 35/20/4 27/20/4
f 27/20/4 28/21/4 36/21/4
f 37/22/4 36/21/4 28/21/4
f 28/21/4 29/22/4 37/22/4
f 38/23/4 37/22/4 29/22/4
f 29/22/4 30/23/4 38/23/4
f 38/23/4 30/23/4 40/24/4
f 40/24/4 42/24/4 38/23/4
f 39/18/2 56/18/2 54/18/2
f 54/18/2 31/18/2 39/18/2
f 40/24/2 32/24/2 55/24/2
f 55/24/2 57/24/2 40/24/2
f 45/17/1 51/18/1 41/18/1
f 82/17/5 45/17/5 41/18/5
f 81/17/1 82/17/1 41/18/1
f 80/17/1 81/17/1 41/18/1
f 79/17/1 80/17/1 41/18/1
f 33/17/1 79/17/1 41/18/1
f 41/18/2 51/18/2 43/18/2
f 43/18/2 53/18/2 56/18/2
f 41/18/6 43/18/6 56/18/6
f 41/18/7 56/18/7 39/18/7
f 85/19/1 81/17/1 80/17/1
f 80/17/1 84/19/1 85/19/1
f 47/20/1 46/19/1 86/19/1
f 47/20/1 86/19/1 85/19/1
f 47/20/1 85/19/1 84/19/1
f 47/20/1 84/19/1 83/19/1
f 47/20/1 83/19/1 34/19/1
f 76/20/1 47/20/1 34/19/1
f 75/20/1 76/20/1 34/19/1
f 35/20/1 75/20/1 34/19/1
f 90/21/1 87/20/1 88/20/1
f 88/20/1 89/21/1 90/21/1
f 49/22/1 48/21/1 78/21/1
f 49/22/1 78/21/1 77/21/1
f 49/22/1 77/21/1 36/21/1
f 70/22/5 49/22/5 36/21/5
f 69/22/1 70/22/1 36/21/1
f 68/22/1 69/22/1 36/21/1
f 67/22/1 68/22/1 36/21/1
f 37/22/1 67/22/1 36/21/1
f 73/23/1 69/22/1 68/22/1
f 68/22/1 72/23/1 73/23/1
f 52/24/1 50/23/1 74/23/1
f 52/24/1 74/23/1 73/23/1
f 52/24/1 73/23/1 72/23/1
f 52/24/1 72/23/1 71/23/1
f 52/24/1 71/23/1 38/23/1
f 42/24/1 52/24/1 38/23/1
f 40/24/2 57/24/2 58/24/2
f 58/24/2 44/24/2 52/24/2
f 40/24/8 58/24/8 52/24/8
f 40/24/8 52/24/8 42/24/8
f 59/17/9 65/18/9 51/18/9
f 51/18/10 45/17/10 59/17/10
f 53/18/2 43/18/2 51/18/2
f 51/18/2 65/18/2 53/18/2
f 60/19/10 59/17/10 45/17/10
f 45/17/10 46/19/10 60/19/10
f 61/20/10 60/19/10 46/19/10
f 46/19/10 47/20/10 61/20/10
f 62/21/10 61/20/10 47/20/10
f 47/20/10 48/21/10 62/21/10
f 63/22/10 62/21/10 48/21/10
f 48/21/10 49/22/10 63/22/10
f 64/23/10 63/22/10 49/22/10
f 49/22/10 50/23/10 64/23/10
f 66/24/11 64/23/11 50/23/11
f 50/23/12 52/24/12 66/24/12
f 58/24/2 66/24/2 52/24/2
f 56/18/2 24/18/2 54/18/2
f 55/24/2 15/24/2 57/24/2
f 53/18/2 24/18/2 56/18/2
f 57/24/2 15/24/2 58/24/2
f 24/18/13 65/18/13 59/17/13
f 59/17/13 9/17/13 24/18/13
f 65/18/2 24/18/2 53/18/2
f 9/17/1 59/17/1 60/19/1
f 60/19/1 10/19/1 9/17/1
f 61/20/2 109/20/2 107/20/2
f 61/20/1 107/20/1 10/19/1
f 61/20/1 10/19/1 60/19/1
f 110/21/1 109/20/1 61/20/1
f 61/20/1 62/21/1 110/21/1
f 63/22/1 13/22/1 108/21/1
f 63/22/2 108/21/2 110/21/2
f 63/22/1 110/21/1 62/21/1
f 13/22/1 63/22/1 64/23/1
f 64/23/1 14/23/1 13/22/1
f 14/23/14 64/23/14 66/24/14
f 66/24/14 15/24/14 14/23/14
f 58/24/2 15/24/2 66/24/2
f 50/23/1 49/22/1 70/22/1
f 70/22/1 74/23/1 50/23/1
f 94/23/1 91/22/1 92/22/1
f 92/22/1 93/23/1 94/23/1
f 37/22/1 38/23/1 71/23/1
f 71/23/1 67/22/1 37/22/1
f 96/22/1 97/23/1 98/23/1
f 98/23/1 95/22/1 96/22/1
f 48/21/1 47/20/1 76/20/1
f 76/20/1 78/21/1 48/21/1
f 35/20/1 36/21/1 77/21/1
f 77/21/1 75/20/1 35/20/1
f 46/19/1 45/17/1 82/17/1
f 82/17/1 86/19/1 46/19/1
f 102/19/1 99/17/1 100/17/1
f 100/17/1 101/19/1 102/19/1
f 79/17/1 33/17/1 34/19/1
f 34/19/1 83/19/1 79/17/1
f 104/17/1 105/19/1 106/19/1
f 106/19/1 103/17/1 104/17/1
f 76/20/8 75/20/8 88/20/8
f 88/20/8 87/20/8 76/20/8
f 75/20/10 77/21/10 89/21/10
f 89/21/10 88/20/10 75/20/10
f 77/21/15 78/21/15 90/21/15
f 90/21/15 89/21/15 77/21/15
f 78/21/16 76/20/16 87/20/16
f 87/20/16 90/21/16 78/21/16
f 70/22/8 69/22/8 92/22/8
f 92/22/8 91/22/8 70/22/8
f 69/22/10 73/23/10 93/23/10
f 93/23/10 92/22/10 69/22/10
f 73/23/15 74/23/15 94/23/15
f 94/23/15 93/23/15 73/23/15
f 74/23/16 70/22/16 91/22/16
f 91/22/16 94/23/16 74/23/16
f 68/22/8 67/22/8 96/22/8
f 96/22/8 95/22/8 68/22/8
f 67/22/10 71/23/10 97/23/10
f 97/23/10 96/22/10 67/22/10
f 71/23/15 72/23/15 98/23/15
f 98/23/15 97/23/15 71/23/15
f 72/23/16 68/22/16 95/22/16
f 95/22/16 98/23/16 72/23/16
f 82/17/8 81/17/8 100/17/8
f 100/17/8 99/17/8 82/17/8
f 81/17/10 85/19/10 101/19/10
f 101/19/10 100/17/10 81/17/10
f 85/19/15 86/19/15 102/19/15
f 102/19/15 101/19/15 85/19/15
f 86/19/16 82/17/16 99/17/16
f 99/17/16 102/19/16 86/19/16
f 80/17/8 79/17/8 104/17/8
f 104/17/8 103/17/8 80/17/8
f 79/17/10 83/19/10 105/19/10
f 105/19/10 104/17/10 79/17/10
f 83/19/15 84/19/15 106/19/15
f 106/19/15 105/19/15 83/19/15
f 84/19/16 80/17/16 103/17/16
f 103/17/16 106/19/16 84/19/16
f 109/20/2 11/20/2 107/20/2
f 11/20/1 109/20/1 110/21/1
f 110/21/1 12/21/1 11/20/1
f 108/21/2 12/21/2 110/21/2
