# Blender3D v249 OBJ File: 
# www.blender3d.org
v -0.138792 0.000000 0.137902
v -0.108669 0.000000 0.137902
v 0.000317 0.000000 0.137902
v 0.031247 0.000000 0.137902
v 0.132389 0.000000 0.137902
v 0.165121 0.000000 0.137902
v 0.259614 0.000000 0.137902
v 0.293774 0.000000 0.137902
v -0.108669 0.000405 -1.003561
v 0.000317 0.000405 -1.003561
v 0.031247 0.000405 -1.111448
v 0.132389 0.000405 -1.111448
v 0.165121 0.000405 -1.003561
v 0.259614 0.000405 -1.003561
v 0.293774 -0.000334 -1.003563
v -0.138792 -0.000000 -0.334636
v -0.108669 -0.000000 -0.334636
v 0.000317 -0.000000 -0.334636
v 0.031247 -0.000000 -0.334636
v 0.132389 -0.000000 -0.334636
v 0.165121 -0.000000 -0.334636
v 0.259614 -0.000000 -0.334636
v 0.293774 -0.000000 -0.334636
v -0.139693 0.000460 -1.003563
v -0.108669 0.000515 -0.393843
v 0.000317 0.000515 -0.393843
v 0.031247 0.000515 -0.393843
v 0.132389 0.000515 -0.393843
v 0.165121 0.000515 -0.393843
v 0.259614 0.000515 -0.393843
v -0.138792 0.000515 -0.393843
v 0.293774 0.000515 -0.393843
v -0.108669 -0.062887 -0.393839
v 0.000317 -0.062887 -0.393839
v 0.031247 -0.062887 -0.393839
v 0.132389 -0.062887 -0.393839
v 0.165121 -0.062887 -0.393839
v 0.259614 -0.062887 -0.393839
v -0.138792 0.000515 -0.393843
v 0.293774 0.000515 -0.393843
v -0.138792 -0.062887 -0.393839
v 0.293774 -0.062887 -0.393839
v -0.138792 -0.062888 -0.907875
v 0.293774 -0.062888 -0.907875
v -0.108669 -0.062888 -0.907875
v 0.000317 -0.062888 -0.907875
v 0.031247 -0.062888 -0.907875
v 0.132389 -0.062888 -0.907875
v 0.165121 -0.062888 -0.907875
v 0.259614 -0.062888 -0.907875
v -0.138792 -0.062888 -0.907875
v 0.293774 -0.062888 -0.907875
v -0.139693 0.000460 -0.907877
v -0.139693 0.000460 -0.907877
v 0.293774 -0.000334 -0.907877
v -0.139693 0.000460 -0.907877
v 0.293774 -0.000334 -0.907877
v 0.293774 -0.000334 -0.907877
v -0.108669 0.000405 -0.907875
v 0.000317 0.000405 -0.907875
v 0.031247 0.000405 -0.907875
v 0.132389 0.000405 -0.907875
v 0.165121 0.000405 -0.907875
v 0.259614 0.000405 -0.907875
v -0.139693 0.000460 -0.907877
v 0.293774 -0.000334 -0.907877
v 0.165121 -0.062888 -0.495618
v 0.165121 -0.062888 -0.598425
v 0.165121 -0.062888 -0.701232
v 0.165121 -0.062888 -0.828758
v 0.259614 -0.062888 -0.495618
v 0.259614 -0.062888 -0.598425
v 0.259614 -0.062888 -0.701232
v 0.259614 -0.062888 -0.828758
v 0.031247 -0.062888 -0.565184
v 0.031247 -0.062888 -0.736529
v 0.132389 -0.062888 -0.565184
v 0.132389 -0.062888 -0.736529
v -0.108669 -0.062888 -0.496646
v -0.108669 -0.062888 -0.599453
v -0.108669 -0.062888 -0.702260
v -0.108669 -0.062888 -0.829786
v 0.000317 -0.062888 -0.496646
v 0.000317 -0.062888 -0.599453
v 0.000317 -0.062888 -0.702260
v 0.000317 -0.062888 -0.829786
v 0.031247 0.001053 -0.736529
v 0.031247 0.001053 -0.565184
v 0.132389 0.001053 -0.565184
v 0.132389 0.001053 -0.736529
v 0.165121 0.001053 -0.828758
v 0.165121 0.001053 -0.701232
v 0.259614 0.001053 -0.701232
v 0.259614 0.001053 -0.828758
v 0.165121 0.001053 -0.598425
v 0.165121 0.001053 -0.495618
v 0.259614 0.001053 -0.495618
v 0.259614 0.001053 -0.598425
v -0.108669 0.001053 -0.829786
v -0.108669 0.001053 -0.702260
v 0.000317 0.001053 -0.702260
v 0.000317 0.001053 -0.829786
v -0.108669 0.001053 -0.599453
v -0.108669 0.001053 -0.496646
v 0.000317 0.001053 -0.496646
v 0.000317 0.001053 -0.599453
v 0.031247 0.000405 -1.003561
v 0.132389 0.000405 -1.003561
v 0.031247 0.000405 -1.003561
v 0.132389 0.000405 -1.003561
vt 0.000000 0.000000
vt 0.142857 0.000000
vt 0.142857 0.974044
vt 0.000000 0.974044
vt 0.285714 0.000000
vt 0.285714 0.974044
vt 0.428571 0.000000
vt 0.428571 0.974044
vt 0.571429 0.000000
vt 0.571429 0.974044
vt 0.714286 0.000000
vt 0.714286 0.974044
vt 0.857143 0.000000
vt 0.857143 0.974044
vt 1.000000 0.000000
vt 1.000000 0.974044
vt 0.142857 1.000000
vt 0.000000 1.000000
vt 0.285714 1.000000
vt 0.428571 1.000000
vt 0.571429 1.000000
vt 0.714286 1.000000
vt 0.857143 1.000000
vt 1.000000 1.000000
vn 0.000000 1.000000 -0.000000
vn 0.000000 0.000000 0.000000
vn -0.000000 0.999962 0.008706
vn -0.000000 -0.000070 -1.000000
vn -0.000001 1.000000 -0.000000
vn 0.999899 0.014224 0.000000
vn 0.999998 -0.000000 -0.001753
vn 0.000001 1.000000 -0.000000
vn -1.000000 0.000000 0.000000
vn -0.000071 0.000034 1.000000
vn 0.000000 0.000000 1.000000
vn 0.000065 -0.000000 1.000000
vn 0.000000 0.000035 1.000000
vn 0.001786 0.999998 -0.000000
vn 0.021615 0.999766 -0.000000
vn 1.000000 0.000000 -0.000000
vn 0.000000 0.000000 -1.000000
usemtl (null)
s off
f 1/1/1 2/2/1 17/3/1
f 16/4/1 1/1/1 17/3/1
f 2/2/1 3/5/1 18/6/1
f 18/6/1 17/3/1 2/2/1
f 3/5/1 4/7/1 19/8/1
f 19/8/1 18/6/1 3/5/1
f 4/7/1 5/9/1 20/10/1
f 20/10/1 19/8/1 4/7/1
f 5/9/1 6/11/1 21/12/1
f 21/12/1 20/10/1 5/9/1
f 6/11/1 7/13/1 22/14/1
f 22/14/1 21/12/1 6/11/1
f 7/13/1 8/15/1 23/16/1
f 23/16/1 22/14/1 7/13/1
f 25/17/2 39/18/2 31/18/2
f 25/17/3 31/18/3 16/4/3
f 17/3/3 25/17/3 16/4/3
f 26/19/3 25/17/3 17/3/3
f 17/3/3 18/6/3 26/19/3
f 27/20/3 26/19/3 18/6/3
f 18/6/3 19/8/3 27/20/3
f 28/21/3 27/20/3 19/8/3
f 19/8/3 20/10/3 28/21/3
f 29/22/3 28/21/3 20/10/3
f 20/10/3 21/12/3 29/22/3
f 30/23/3 29/22/3 21/12/3
f 21/12/3 22/14/3 30/23/3
f 23/16/2 32/24/2 40/24/2
f 23/16/3 40/24/3 30/23/3
f 23/16/3 30/23/3 22/14/3
f 41/18/4 39/18/4 25/17/4
f 25/17/4 33/17/4 41/18/4
f 34/19/4 33/17/4 25/17/4
f 25/17/4 26/19/4 34/19/4
f 35/20/4 34/19/4 26/19/4
f 26/19/4 27/20/4 35/20/4
f 36/21/4 35/20/4 27/20/4
f 27/20/4 28/21/4 36/21/4
f 37/22/4 36/21/4 28/21/4
f 28/21/4 29/22/4 37/22/4
f 38/23/4 37/22/4 29/22/4
f 29/22/4 30/23/4 38/23/4
f 38/23/4 30/23/4 40/24/4
f 40/24/4 42/24/4 38/23/4
f 39/18/2 56/18/2 54/18/2
f 54/18/2 31/18/2 39/18/2
f 40/24/2 32/24/2 55/24/2
f 55/24/2 57/24/2 40/24/2
f 45/17/1 51/18/1 41/18/1
f 82/17/5 45/17/5 41/18/5
f 81/17/1 82/17/1 41/18/1
f 80/17/1 81/17/1 41/18/1
f 79/17/1 80/17/1 41/18/1
f 33/17/1 79/17/1 41/18/1
f 41/18/2 51/18/2 43/18/2
f 43/18/2 53/18/2 56/18/2
f 41/18/6 43/18/6 56/18/6
f 41/18/7 56/18/7 39/18/7
f 85/19/1 81/17/1 80/17/1
f 80/17/1 84/19/1 85/19/1
f 47/20/1 46/19/1 86/19/1
f 47/20/1 86/19/1 85/19/1
f 47/20/1 85/19/1 84/19/1
f 47/20/8 84/19/8 83/19/8
f 47/20/1 83/19/1 34/19/1
f 76/20/1 47/20/1 34/19/1
f 75/20/1 76/20/1 34/19/1
f 35/20/1 75/20/1 34/19/1
f 90/21/1 87/20/1 88/20/1
f 88/20/1 89/21/1 90/21/1
f 49/22/1 48/21/1 78/21/1
f 49/22/1 78/21/1 77/21/1
f 49/22/1 77/21/1 36/21/1
f 70/22/5 49/22/5 36/21/5
f 69/22/1 70/22/1 36/21/1
f 68/22/1 69/22/1 36/21/1
f 67/22/1 68/22/1 36/21/1
f 37/22/1 67/22/1 36/21/1
f 73/23/1 69/22/1 68/22/1
f 68/22/1 72/23/1 73/23/1
f 52/24/1 50/23/1 74/23/1
f 52/24/1 74/23/1 73/23/1
f 52/24/1 73/23/1 72/23/1
f 52/24/8 72/23/8 71/23/8
f 52/24/1 71/23/1 38/23/1
f 42/24/1 52/24/1 38/23/1
f 40/24/2 57/24/2 58/24/2
f 58/24/2 44/24/2 52/24/2
f 40/24/9 58/24/9 52/24/9
f 40/24/9 52/24/9 42/24/9
f 59/17/10 65/18/10 51/18/10
f 51/18/11 45/17/11 59/17/11
f 53/18/2 43/18/2 51/18/2
f 51/18/2 65/18/2 53/18/2
f 60/19/11 59/17/11 45/17/11
f 45/17/11 46/19/11 60/19/11
f 61/20/11 60/19/11 46/19/11
f 46/19/11 47/20/11 61/20/11
f 62/21/11 61/20/11 47/20/11
f 47/20/11 48/21/11 62/21/11
f 63/22/11 62/21/11 48/21/11
f 48/21/11 49/22/11 63/22/11
f 64/23/11 63/22/11 49/22/11
f 49/22/11 50/23/11 64/23/11
f 66/24/12 64/23/12 50/23/12
f 50/23/13 52/24/13 66/24/13
f 58/24/2 66/24/2 52/24/2
f 56/18/2 24/18/2 54/18/2
f 55/24/2 15/24/2 57/24/2
f 53/18/2 24/18/2 56/18/2
f 57/24/2 15/24/2 58/24/2
f 24/18/14 65/18/14 59/17/14
f 59/17/14 9/17/14 24/18/14
f 65/18/2 24/18/2 53/18/2
f 9/17/1 59/17/1 60/19/1
f 60/19/1 10/19/1 9/17/1
f 61/20/2 109/20/2 107/20/2
f 61/20/1 107/20/1 10/19/1
f 61/20/1 10/19/1 60/19/1
f 110/21/1 109/20/1 61/20/1
f 61/20/1 62/21/1 110/21/1
f 63/22/1 13/22/1 108/21/1
f 63/22/2 108/21/2 110/21/2
f 63/22/1 110/21/1 62/21/1
f 13/22/1 63/22/1 64/23/1
f 64/23/1 14/23/1 13/22/1
f 14/23/15 64/23/15 66/24/15
f 66/24/15 15/24/15 14/23/15
f 58/24/2 15/24/2 66/24/2
f 50/23/1 49/22/1 70/22/1
f 70/22/1 74/23/1 50/23/1
f 94/23/1 91/22/1 92/22/1
f 92/22/1 93/23/1 94/23/1
f 37/22/1 38/23/1 71/23/1
f 71/23/1 67/22/1 37/22/1
f 96/22/1 97/23/1 98/23/1
f 98/23/1 95/22/1 96/22/1
f 48/21/1 47/20/1 76/20/1
f 76/20/1 78/21/1 48/21/1
f 35/20/1 36/21/1 77/21/1
f 77/21/1 75/20/1 35/20/1
f 46/19/1 45/17/1 82/17/1
f 82/17/1 86/19/1 46/19/1
f 102/19/1 99/17/1 100/17/1
f 100/17/1 101/19/1 102/19/1
f 79/17/1 33/17/1 34/19/1
f 34/19/1 83/19/1 79/17/1
f 104/17/1 105/19/1 106/19/1
f 106/19/1 103/17/1 104/17/1
f 76/20/9 75/20/9 88/20/9
f 88/20/9 87/20/9 76/20/9
f 75/20/11 77/21/11 89/21/11
f 89/21/11 88/20/11 75/20/11
f 77/21/16 78/21/16 90/21/16
f 90/21/16 89/21/16 77/21/16
f 78/21/17 76/20/17 87/20/17
f 87/20/17 90/21/17 78/21/17
f 70/22/9 69/22/9 92/22/9
f 92/22/9 91/22/9 70/22/9
f 69/22/11 73/23/11 93/23/11
f 93/23/11 92/22/11 69/22/11
f 73/23/16 74/23/16 94/23/16
f 94/23/16 93/23/16 73/23/16
f 74/23/17 70/22/17 91/22/17
f 91/22/17 94/23/17 74/23/17
f 68/22/9 67/22/9 96/22/9
f 96/22/9 95/22/9 68/22/9
f 67/22/11 71/23/11 97/23/11
f 97/23/11 96/22/11 67/22/11
f 71/23/16 72/23/16 98/23/16
f 98/23/16 97/23/16 71/23/16
f 72/23/17 68/22/17 95/22/17
f 95/22/17 98/23/17 72/23/17
f 82/17/9 81/17/9 100/17/9
f 100/17/9 99/17/9 82/17/9
f 81/17/11 85/19/11 101/19/11
f 101/19/11 100/17/11 81/17/11
f 85/19/16 86/19/16 102/19/16
f 102/19/16 101/19/16 85/19/16
f 86/19/17 82/17/17 99/17/17
f 99/17/17 102/19/17 86/19/17
f 80/17/9 79/17/9 104/17/9
f 104/17/9 103/17/9 80/17/9
f 79/17/11 83/19/11 105/19/11
f 105/19/11 104/17/11 79/17/11
f 83/19/16 84/19/16 106/19/16
f 106/19/16 105/19/16 83/19/16
f 84/19/17 80/17/17 103/17/17
f 103/17/17 106/19/17 84/19/17
f 109/20/2 11/20/2 107/20/2
f 11/20/1 109/20/1 110/21/1
f 110/21/1 12/21/1 11/20/1
f 108/21/2 12/21/2 110/21/2
